<svg width="364" height="401" viewBox="0 0 364 401" fill="none" xmlns="http://www.w3.org/2000/svg">
<path fill-rule="evenodd" clip-rule="evenodd" d="M15.2929 0L13.2929 2H0V395.707L4.79289 400.5H351.207L363.5 388.207V0H15.2929ZM15.7071 1H23.5V41.2929L21.5 43.2929V356.707L24 359.207V399.5H5.2071L1 395.293V3H13.7071L15.7071 1ZM25 399.5H350.793L362.5 387.793V1H24.5V41.7071L22.5 43.7071V356.293L25 358.793V399.5Z" fill="#0E0E17"/>
<path d="M25 399.5H350.793L362.5 387.793V1H24.5V41.7071L22.5 43.7071V356.293L25 358.793V399.5Z" fill="#0E0E17"/>
<path fill-rule="evenodd" clip-rule="evenodd" d="M16 0H15.7929L15.6464 0.146447L13.7929 2H1H0.5V2.5V395.5V395.707L0.646447 395.854L5.14645 400.354L5.29289 400.5H5.5H351.5H351.707L351.854 400.354L363.854 388.354L364 388.207V388V0.5V0H363.5H16ZM14.3536 2.85355L16.2071 1H24V41.2929L22.1464 43.1464L22 43.2929V43.5V356.5V356.707L22.1464 356.854L24.5 359.207V399.5H5.7071L1.5 395.293V3H14H14.2071L14.3536 2.85355ZM25.5 399.5H351.293L363 387.793V1H25V41.5V41.7071L24.8536 41.8536L23 43.7071V356.293L25.3536 358.646L25.5 358.793V359V399.5Z" fill="#B00580"/>
<path fill-rule="evenodd" clip-rule="evenodd" d="M16 0H15.7929L15.6464 0.146447L13.7929 2H1H0.5V2.5V395.5V395.707L0.646447 395.854L5.14645 400.354L5.29289 400.5H5.5H351.5H351.707L351.854 400.354L363.854 388.354L364 388.207V388V0.5V0H363.5H16ZM14.3536 2.85355L16.2071 1H24V41.2929L22.1464 43.1464L22 43.2929V43.5V356.5V356.707L22.1464 356.854L24.5 359.207V399.5H5.7071L1.5 395.293V3H14H14.2071L14.3536 2.85355ZM25.5 399.5H351.293L363 387.793V1H25V41.5V41.7071L24.8536 41.8536L23 43.7071V356.293L25.3536 358.646L25.5 358.793V359V399.5Z" fill="#B00580"/>
<path d="M16.2071 1L14.3536 2.85355L14.2071 3H14H1.5V395.293L5.7071 399.5H24.5V359.207L22.1464 356.854L22 356.707V356.5V43.5V43.2929L22.1464 43.1464L24 41.2929V1H16.2071Z" fill="#B00580" fill-opacity="0.2"/>
</svg>
