<svg width="32" height="33" viewBox="0 0 18 19" fill="none" xmlns="http://www.w3.org/2000/svg">
<path d="M5.57783 17.3404C3.95939 16.3867 3.49698 15.9821 3.46808 15.4619V14.7682L4.4218 15.3463C7.86098 17.3982 8.09219 17.5138 8.84361 17.167C10.2019 16.5601 10.5776 16.9647 9.53722 18.0051C8.6991 18.8432 7.91878 18.7276 5.57783 17.3404Z" fill="#B00580"/>
<path d="M1.21383 14.8838L0 14.1035L0.0578013 9.36382L0.144503 4.65301L4.1328 2.31205L8.14999 0L9.13261 0.462411C9.68172 0.722517 10.1152 1.06932 10.1152 1.24273C10.1152 1.76294 9.21931 1.93635 8.5835 1.56064C8.17889 1.30053 7.94768 1.27163 7.71648 1.50283C7.54308 1.67624 7.10956 1.82074 6.73386 1.82074C6.35815 1.82074 6.06914 1.99415 6.06914 2.19645C6.06914 2.36985 4.99982 3.15017 3.67039 3.87269L1.30053 5.20212L1.12713 13.5833L1.87854 13.9012C2.36985 14.1324 2.60106 14.4792 2.60106 14.9705C2.60106 15.3752 2.57216 15.6931 2.54326 15.6642C2.48546 15.6642 1.90744 15.2885 1.21383 14.8838Z" fill="#B00580"/>
<path d="M14.9127 14.3925C14.826 14.1324 14.9994 13.8145 15.3173 13.6122C15.6352 13.4099 15.8953 13.0053 15.8953 12.7452C15.8953 12.4273 16.1265 12.225 16.4734 12.225C17.3982 12.225 17.2248 13.4966 16.2133 14.2191C15.2017 14.9416 15.1439 14.9416 14.9127 14.3925Z" fill="#B00580"/>
<path d="M6.87837 12.9475C6.44486 11.9938 6.44486 11.936 6.96507 11.936C7.31188 11.936 7.51418 11.7337 7.51418 11.358C7.51418 11.0401 7.62978 10.7799 7.74539 10.7799C8.2078 10.7799 8.67021 11.4736 8.67021 12.1672C8.67021 12.5718 8.78581 12.7741 8.98812 12.6296C9.16152 12.5429 9.24822 12.0805 9.13262 11.6181C9.04592 11.1557 9.07482 10.7799 9.21932 10.7799C9.47943 10.7799 9.82623 12.1672 9.82623 13.2654C9.82623 13.9012 9.71063 13.959 8.58351 13.959C7.45638 13.959 7.31188 13.8723 6.87837 12.9475Z" fill="#B00580"/>
<path d="M5.54892 10.7799C4.942 9.76841 5.14431 8.87249 6.21363 7.91877C7.31186 6.96505 8.09218 6.76274 8.09218 7.39856C8.09218 7.62977 7.83207 8.03437 7.51416 8.32338C6.84945 8.90139 6.76275 9.62391 7.28296 10.1441C7.54306 10.4042 7.48526 10.4909 6.99395 10.4909C6.61824 10.4909 6.35814 10.6643 6.35814 10.9244C6.35814 11.5314 5.98243 11.4736 5.54892 10.7799Z" fill="#B00580"/>
<path d="M7.51417 9.21931C7.51417 8.9881 7.68758 8.7569 7.91878 8.6702C8.20779 8.55459 8.26559 8.67019 8.17889 9.0748C8.00549 9.71062 7.51417 9.82622 7.51417 9.21931Z" fill="#B00580"/>
<path d="M9.13261 7.71648C9.04591 7.45637 8.95921 6.67605 8.95921 5.98244C8.95921 4.94201 9.04591 4.71081 9.50832 4.71081C9.91293 4.71081 10.0863 4.99981 10.2019 5.80903C10.3175 6.38704 10.3175 7.16736 10.2308 7.54307C10.0285 8.26559 9.39272 8.38119 9.13261 7.71648Z" fill="#B00580"/>
<path d="M10.9823 6.70495C10.9823 5.40442 11.0401 5.28882 11.4158 5.69342C11.647 5.92463 11.8493 6.50264 11.8493 6.96505C11.8493 7.45637 11.6759 7.88988 11.4158 8.00548C11.069 8.12108 10.9823 7.88988 10.9823 6.70495Z" fill="#B00580"/>
<path d="M15.8954 5.34661C15.8954 5.08651 15.6353 4.6819 15.2885 4.47959C14.8261 4.19059 14.7683 4.01718 15.0284 3.69927C15.5486 3.06346 17.0514 4.04608 17.0514 5.08651C17.0514 5.66452 16.9069 5.86682 16.4734 5.86682C16.1266 5.86682 15.8954 5.66452 15.8954 5.34661Z" fill="#B00580"/>
<path d="M2.48544 15.5486C1.90742 15.1439 1.30051 14.826 1.12711 14.826C0.982602 14.826 0.722496 14.4792 0.577992 14.0746C0.202284 13.1209 0.202284 13.092 0.722496 13.092C0.953701 13.092 1.15601 13.1787 1.15601 13.3232C1.15601 13.4388 1.84962 13.9012 2.68774 14.3636C3.49696 14.8549 4.45068 15.4619 4.73969 15.7509C5.2888 16.2711 5.2888 16.2711 4.42178 16.2711C3.95937 16.2711 3.06345 15.9532 2.48544 15.5486Z" fill="#B00580"/>
<path d="M7.80318 13.5255C7.80318 13.2943 7.54308 12.9764 7.22517 12.803C6.53155 12.4273 5.20212 10.2019 5.20212 9.42161C5.20212 8.7569 6.99396 7.02286 7.65868 7.02286C8.17889 7.02286 8.17889 7.16736 7.80318 7.88988C7.60088 8.23669 7.31187 8.38119 6.87836 8.26559C6.38705 8.17889 6.32925 8.20779 6.61825 8.41009C6.82056 8.55459 6.90726 8.8436 6.79166 9.04591C6.67605 9.24821 6.96506 9.76842 7.54307 10.3753C8.5257 11.3869 8.84361 12.4851 8.26559 12.8608C8.06329 13.0053 8.12109 13.092 8.4101 13.092C8.90141 13.092 9.24821 12.5429 9.24821 11.7915C9.24821 11.5603 8.87251 10.9245 8.3812 10.4042C7.91878 9.85513 7.51417 9.27711 7.51417 9.10371C7.51417 8.6702 8.26559 8.46789 8.6413 8.8436C8.87251 9.07481 9.04591 9.07481 9.30602 8.8147C9.56612 8.55459 9.56612 8.46789 9.30602 8.46789C9.10371 8.46789 8.95921 8.26559 8.95921 8.03438C8.95921 7.80318 9.21931 7.60087 9.50832 7.60087C9.91293 7.60087 10.1152 7.83208 10.173 8.41009C10.2308 9.01701 10.4331 9.21931 11.0401 9.27711C12.1383 9.42162 12.4273 10.8088 11.5892 11.9649C11.2424 12.3984 10.9823 13.0342 10.9823 13.381C10.9823 13.9012 10.8089 13.959 9.39272 13.959C8.17889 13.959 7.80318 13.8434 7.80318 13.5255Z" fill="#B00580"/>
<path d="M11.1845 8.55459C10.8088 8.20779 10.9822 7.60087 11.4157 7.60087C11.6469 7.60087 11.8492 7.86098 11.8492 8.17889C11.8492 8.7569 11.5313 8.9303 11.1845 8.55459Z" fill="#B00580"/>
<path d="M5.20212 7.39856C5.20212 7.22516 5.37552 6.93615 5.60673 6.73385C5.83794 6.56045 6.09804 6.12694 6.15584 5.78013C6.27145 5.23101 6.27145 5.23101 6.32925 5.89573C6.32925 6.32924 6.09804 6.87835 5.78013 7.16736C5.46223 7.45637 5.20212 7.54307 5.20212 7.39856Z" fill="#B00580"/>
<path d="M7.05175 6.04024C6.84944 5.20212 7.08065 4.71081 7.68756 4.71081C7.94767 4.71081 8.09217 5.02871 8.09217 5.72233C8.09217 6.90726 7.34075 7.13846 7.05175 6.04024Z" fill="#B00580"/>
<path d="M5.3177 17.1381C5.17319 16.9936 4.33507 16.5023 3.46805 16.0688C1.90742 15.2596 1.2716 14.537 2.13862 14.537C2.39873 14.537 3.35245 14.9416 4.24837 15.4041C5.14429 15.8954 5.75121 16.2711 5.6067 16.2711C5.4911 16.2711 5.52 16.4156 5.72231 16.6179C5.92461 16.8202 6.06911 17.0803 6.06911 17.1959C6.06911 17.5138 5.6645 17.4849 5.3177 17.1381Z" fill="#B00580"/>
<path d="M14.9127 14.3925C14.826 14.1613 14.9994 13.8145 15.2884 13.6122C15.5774 13.4099 15.8954 12.9764 15.9821 12.6585C16.0977 12.1383 16.1266 12.1383 16.1555 12.7452C16.1555 13.092 16.3289 13.381 16.4734 13.381C16.9936 13.381 16.7624 14.0168 16.1844 14.1613C15.8665 14.248 15.6063 14.4214 15.6063 14.5659C15.6063 14.9994 15.115 14.8549 14.9127 14.3925Z" fill="#B00580"/>
<path d="M5.23101 9.71062C5.20211 9.04591 6.79165 7.31187 7.45637 7.31187C7.86098 7.31187 7.86098 7.36967 7.62977 7.97658C7.54307 8.20779 7.25406 8.35229 6.96505 8.26559C6.41594 8.12108 5.63562 8.9014 5.40442 9.76842C5.28882 10.2886 5.25992 10.2886 5.23101 9.71062Z" fill="#B00580"/>
<path d="M8.95921 6.58935C8.95921 4.91311 9.01701 4.71081 9.53722 4.71081C9.85513 4.71081 10.1152 4.91311 10.1152 5.14432C10.1152 5.37552 9.91293 5.57783 9.68172 5.57783C9.45052 5.57783 9.24821 5.83793 9.24821 6.15584C9.24821 6.47375 9.45052 6.73385 9.68172 6.73385C9.97073 6.73385 10.1152 7.02286 10.1152 7.60087C10.1152 8.26559 9.99963 8.46789 9.53722 8.46789C9.01701 8.46789 8.95921 8.26559 8.95921 6.58935Z" fill="#B00580"/>
<path d="M11.0112 6.87836C11.0112 5.34662 11.3291 4.82641 11.6759 5.75123C12.0227 6.67605 11.8782 8.46789 11.4447 8.46789C11.1268 8.46789 11.0112 8.06328 11.0112 6.87836Z" fill="#B00580"/>
<path d="M5.20212 6.84946C5.20212 6.01134 5.63563 5.28882 6.12694 5.28882C6.58935 5.28882 6.32925 6.64715 5.78013 7.16736C5.20212 7.68757 5.20212 7.65867 5.20212 6.84946Z" fill="#B00580"/>
<path d="M7.22517 5.57783C7.22517 4.99981 7.36967 4.71081 7.65868 4.71081C7.94768 4.71081 8.09219 4.99981 8.09219 5.57783C8.09219 6.15584 7.94768 6.44485 7.65868 6.44485C7.36967 6.44485 7.22517 6.15584 7.22517 5.57783Z" fill="#B00580"/>
<path d="M0.867052 5.43332C0.867052 5.20211 0.722549 4.99981 0.549145 4.99981C3.20077e-05 4.99981 0.606946 4.4218 1.73407 3.84378C3.0635 3.17907 3.75712 3.64148 2.57219 4.3929C2.19648 4.653 1.64737 5.08651 1.38726 5.37552C0.953754 5.78013 0.867052 5.78013 0.867052 5.43332Z" fill="#B00580"/>
<path d="M15.8953 5.28882C15.8953 4.97092 15.7219 4.71081 15.4907 4.71081C14.9994 4.71081 14.6526 3.93049 15.0572 3.69929C15.2017 3.58368 15.5485 3.58368 15.8664 3.69929C16.2421 3.81489 16.3577 4.04609 16.2421 4.56631C16.1554 5.08652 16.2421 5.28882 16.589 5.28882C16.8491 5.28882 17.0514 5.43333 17.0514 5.57783C17.0514 5.75123 16.7913 5.86682 16.4734 5.86682C16.0977 5.86682 15.8953 5.66453 15.8953 5.28882Z" fill="#B00580"/>
<path d="M5.20212 2.71666C5.20212 2.54326 4.99981 2.39875 4.73971 2.39875C4.5085 2.39875 4.3929 2.25425 4.4796 2.10975C4.59521 1.93634 4.79751 1.87854 4.94201 1.96524C5.08652 2.08084 5.20212 2.02304 5.20212 1.84964C5.20212 1.70514 5.66453 1.41613 6.21364 1.21382C6.76276 1.01152 7.22517 0.751414 7.22517 0.635811C7.22517 0.520208 7.54307 0.375705 7.94768 0.317904C8.35229 0.231202 8.5835 0.289003 8.4679 0.462407C8.38119 0.60691 8.4679 0.693612 8.6991 0.60691C9.13261 0.462407 9.82623 1.01152 9.82623 1.50283C9.82623 1.93634 9.16151 1.90744 8.728 1.47393C8.4679 1.21382 8.23669 1.18492 7.86098 1.41613C7.60088 1.58953 6.87836 1.99414 6.30034 2.36985C5.69343 2.71666 5.20212 2.89006 5.20212 2.71666Z" fill="#B00580"/>
</svg>
