<svg width="32" height="33" viewBox="0 0 18 22" fill="none" xmlns="http://www.w3.org/2000/svg">
<path d="M4.79421 18.9154C0.348654 16.3875 -0.174354 15.9808 0.116205 15.5159C0.464876 14.9638 0.929771 15.1381 4.85232 17.3754C8.71675 19.5837 9.23976 19.758 9.76277 19.2931C10.4892 18.5667 17.2882 14.9057 17.6369 15.0219C18.5377 15.3706 17.8113 16.0679 14.4117 18.0437C12.4359 19.1769 10.3729 20.3682 9.82088 20.6878L8.86203 21.2689L4.79421 18.9154Z" fill="#B00580"/>
<path d="M5.86936 14.9057C5.20107 14.4408 4.38751 13.511 4.06789 12.9008C3.45772 11.6805 3.28338 9.67561 3.77733 9.67561C3.95167 9.67561 4.06789 10.0243 4.06789 10.4601C4.06789 13.5691 8.13572 16.2713 10.2568 14.6151C10.9832 14.0631 11.0704 13.7725 10.9832 12.8427C10.896 11.8257 10.9541 11.7095 11.5353 11.7095C12.1454 11.7095 12.2035 11.8548 12.2035 13.1042C12.2035 13.8597 12.0873 14.6151 11.9711 14.7895C11.5353 15.4287 10.4602 15.7774 8.77495 15.7774C7.32215 15.7774 6.85726 15.6321 5.86936 14.9057Z" fill="#B00580"/>
<path d="M8.33915 13.8306C7.96143 13.4819 8.13576 12.2616 8.54254 12.1163C9.00744 11.942 10.1697 12.465 10.1697 12.8718C10.1697 13.5691 8.80405 14.3246 8.33915 13.8306Z" fill="#B00580"/>
<path d="M3.77734 8.22282C3.77734 7.84509 5.81126 5.60779 6.13087 5.60779C6.27615 5.60779 6.39238 6.13079 6.39238 6.77002C6.39238 7.40925 6.27615 7.93226 6.10182 7.93226C5.95654 7.93226 5.81126 7.6417 5.81126 7.29303C5.7822 6.68286 5.75314 6.68286 4.99769 7.58359C4.21318 8.51338 3.77734 8.74583 3.77734 8.22282Z" fill="#B00580"/>
<path d="M0.174241 5.69496C-0.058206 5.08479 -0.290655 5.25912 4.64885 2.41164L8.8329 0L10.6053 0.92979C13.8305 2.67314 17.8402 5.17195 17.9565 5.52062C18.2761 6.56664 16.8523 6.10174 13.046 3.89349L8.94913 1.51091L4.82319 3.83538C2.55683 5.14289 0.610079 6.18891 0.522911 6.18891C0.435744 6.18891 0.261409 5.95646 0.174241 5.69496Z" fill="#B00580"/>
<path d="M10.925 15.051C10.8379 14.7895 10.896 14.3246 11.0413 14.034C11.5062 13.1623 11.3899 12.5812 10.5183 11.7386C10.0243 11.2446 9.26885 10.8669 8.5134 10.7507C7.11872 10.5182 5.8112 9.21072 5.8112 7.99037C5.8112 7.55453 5.72403 6.9153 5.63686 6.53757C5.46253 5.98551 5.63686 5.81117 6.82816 5.28817C9.5013 4.09688 12.5231 5.25911 13.8887 7.93226C14.7314 9.64656 14.7023 10.9831 13.7435 12.8427C12.8137 14.6151 11.2447 15.8355 10.925 15.051ZM9.58847 8.39715C9.58847 8.33904 9.67564 8.07754 9.7628 7.84509C9.99525 7.20586 9.0364 6.36324 8.54245 6.79908C8.10661 7.14775 7.99039 7.99037 8.33906 8.30998C8.54245 8.54243 9.58847 8.60054 9.58847 8.39715Z" fill="#B00580"/>
<path d="M4.64893 7.23492C4.64893 7.00247 4.79421 6.71191 4.93948 6.62474C5.11382 6.53758 5.23004 6.6538 5.23004 6.88624C5.23004 7.11869 5.11382 7.40925 4.93948 7.49642C4.79421 7.58359 4.64893 7.46737 4.64893 7.23492Z" fill="#B00580"/>
<path d="M12.3488 2.7022C12.0291 2.58598 11.6805 2.52787 11.5643 2.61503C11.419 2.67315 11.3318 2.58598 11.3318 2.41164C11.3318 2.23731 11.2156 2.1792 11.0412 2.26636C10.896 2.35353 10.7507 2.23731 10.7507 2.00486C10.7507 1.74336 10.6345 1.53997 10.4601 1.53997C10.3148 1.53997 10.1696 1.68525 10.1696 1.83052C10.1696 2.03392 9.96618 2.03392 9.58845 1.83052C9.26883 1.65619 8.83299 1.59808 8.6296 1.7143C8.39716 1.85958 8.39716 1.80147 8.65866 1.4528C8.89111 1.19129 8.94922 0.842624 8.83299 0.639233C8.51338 0.116226 10.1405 0.581121 11.0994 1.24941C11.5352 1.56902 12.0001 1.83052 12.1454 1.83052C12.2616 1.83052 12.6103 2.00486 12.9299 2.20825C13.5691 2.7022 13.1623 3.02182 12.3488 2.7022Z" fill="#B00580"/>
<path d="M6.97345 15.4577C6.97345 15.3125 6.82817 15.2543 6.62478 15.3706C6.45044 15.4868 6.39233 15.4577 6.4795 15.2543C6.71195 14.9057 7.84513 15.1381 7.84513 15.5159C7.84513 15.6611 7.64174 15.7774 7.40929 15.7774C7.17684 15.7774 6.97345 15.6321 6.97345 15.4577Z" fill="#B00580"/>
<path d="M8.65868 13.7144C8.13567 13.4238 7.93228 12.5812 8.36812 12.5812C8.48434 12.5812 8.83301 12.7846 9.12357 13.017C9.82091 13.5401 9.41413 14.1502 8.65868 13.7144Z" fill="#B00580"/>
<path d="M3.92264 12.2906C3.80641 12.1163 3.66114 11.2737 3.57397 10.402C3.42869 9.00732 3.51585 8.65865 4.18414 7.61264C5.08487 6.24701 5.57883 6.33418 4.88148 7.72887C4.15509 9.12355 3.86453 10.5763 4.09697 11.6514C4.30037 12.6103 4.24225 12.8136 3.92264 12.2906Z" fill="#B00580"/>
<path d="M0 10.7216C0 9.879 0.290557 9.61749 0.84262 9.93711C1.36563 10.2567 1.13318 11.2446 0.49395 11.3608C0.145279 11.448 0 11.2737 0 10.7216Z" fill="#B00580"/>
<path d="M16.7944 11.2737C16.7072 11.1865 16.7072 10.8379 16.7654 10.5182C16.9687 9.76278 17.8695 9.90806 17.8695 10.6926C17.8695 11.2446 17.1431 11.6224 16.7944 11.2737Z" fill="#B00580"/>
</svg>
