<svg width="16" height="19" viewBox="0 0 16 19" fill="none" xmlns="http://www.w3.org/2000/svg">
<path d="M7.04523 17.5484C5.7291 16.7484 6.09039 15.9484 7.48394 16.5162C8.10329 16.7742 8.33555 16.7484 8.82588 16.4129C9.60007 15.871 9.80652 15.8968 9.80652 16.5936C9.80652 16.9549 9.52265 17.3162 9.00652 17.6258C8.02587 18.1678 8.05168 18.1678 7.04523 17.5484Z" fill="#B00580"/>
<path d="M13.8322 14.5291C13.5226 14.2194 13.6774 13.4194 14.0645 13.4194C14.7613 13.4194 14.9677 12.4129 14.9677 8.80002V5.18711L14.1677 4.61937C13.471 4.12905 13.4193 4.02582 13.7548 3.66453C14.1161 3.32904 14.2451 3.35485 15.071 3.84517L16 4.43872V8.90325V13.3936L15.3032 13.8839C14.2193 14.6323 14.0129 14.7097 13.8322 14.5291Z" fill="#B00580"/>
<path d="M0.825807 13.9097C0.0774187 13.4194 0 13.2387 0 12.1032C0 11.0194 0.0774195 10.8387 0.51613 10.8387C0.95484 10.8387 1.03226 11.0194 1.03226 11.871C1.03226 12.6194 1.13549 12.9032 1.41936 12.9032C1.93549 12.9032 2.16775 13.5226 1.88388 14.0387C1.70323 14.3742 1.54839 14.3484 0.825807 13.9097Z" fill="#B00580"/>
<path d="M7.22571 14.0645C7.01926 13.8065 6.96764 13.4194 7.09668 12.9807C7.48377 11.6129 7.53539 6.63227 7.1999 5.60001C6.96764 4.87743 6.94184 4.46452 7.14829 4.18065C7.56119 3.50968 8.41281 3.50968 8.87732 4.15484C9.23862 4.67097 9.23862 4.82581 8.90313 5.34194C8.3612 6.16775 8.3612 12.0258 8.90313 12.7484C9.23862 13.2129 9.23862 13.3162 8.72249 13.8581C8.07733 14.5549 7.66442 14.6065 7.22571 14.0645ZM8.387 13.1613C8.387 12.9549 8.18055 12.7484 7.94829 12.6968C7.61281 12.6452 7.48377 12.7742 7.48377 13.1613C7.48377 13.5484 7.61281 13.6774 7.94829 13.6258C8.18055 13.5742 8.387 13.3678 8.387 13.1613ZM8.33539 4.49033C8.25797 4.28388 8.10313 4.12904 7.9999 4.12904C7.63861 4.12904 7.43216 4.64517 7.587 5.08388C7.71603 5.39356 7.81926 5.41936 8.12894 5.1613C8.30958 5.00646 8.41281 4.69678 8.33539 4.49033Z" fill="#B00580"/>
<path d="M5.13556 11.8968C4.54201 11.4065 4.54201 11.4065 4.98073 10.4774C5.54847 9.29035 5.54847 8.41293 4.98073 7.45809C4.54201 6.7355 4.54201 6.68389 5.08395 6.14195C5.57427 5.65163 5.75492 5.62582 6.32266 5.88389C7.04524 6.21937 7.22589 7.32905 6.58073 7.58712C6.01298 7.79357 6.03879 10.2194 6.60654 10.4258C7.14847 10.6323 6.96782 11.5871 6.29685 12.0516C5.80653 12.3613 5.6775 12.3355 5.13556 11.8968ZM6.32266 11.0968C6.32266 10.8903 6.11621 10.6839 5.88395 10.6323C5.54847 10.5807 5.41943 10.7097 5.41943 11.0968C5.41943 11.4839 5.54847 11.6129 5.88395 11.5613C6.11621 11.5097 6.32266 11.3033 6.32266 11.0968ZM6.16782 7.25163C6.58073 6.99357 6.32266 6.45163 5.78072 6.45163C5.57427 6.45163 5.41943 6.68389 5.41943 6.96776C5.41943 7.5355 5.60008 7.61292 6.16782 7.25163Z" fill="#B00580"/>
<path d="M9.4451 11.9742C8.98058 11.5355 8.90316 10.4258 9.29026 10.1936C9.4451 10.1161 9.54832 9.52259 9.54832 8.90323C9.54832 8.28388 9.4451 7.69033 9.29026 7.61291C8.92897 7.38065 8.95477 6.3742 9.34187 5.9871C9.78058 5.54839 10.2451 5.6 10.8645 6.21936C11.3548 6.70968 11.3806 6.7871 10.9419 7.40646C10.3999 8.25807 10.3741 9.83227 10.9161 10.6065C11.329 11.1742 11.3032 11.2258 10.787 11.7936C10.1419 12.4903 9.96123 12.5161 9.4451 11.9742ZM10.4774 11.329C10.7354 10.8903 10.1419 10.4 9.78058 10.7613C9.4709 11.071 9.67736 11.6129 10.0645 11.6129C10.1935 11.6129 10.3741 11.4839 10.4774 11.329ZM10.5806 6.96775C10.5806 6.83871 10.4515 6.65807 10.2967 6.55484C9.93542 6.34839 9.4451 6.83872 9.65155 7.20001C9.83219 7.48388 10.5806 7.30323 10.5806 6.96775Z" fill="#B00580"/>
<path d="M2.78712 9.41937C2.55486 8.87744 2.58067 8.69679 2.96777 8.25808C3.56131 7.61292 3.92261 7.61292 4.51616 8.25808C4.90325 8.69679 4.92906 8.87744 4.6968 9.41937C4.2839 10.2968 3.20002 10.2968 2.78712 9.41937ZM4.07745 8.98066C4.02583 8.64518 3.8968 8.38711 3.74196 8.38711C3.61293 8.38711 3.45809 8.64518 3.40647 8.98066C3.35486 9.36776 3.45809 9.5484 3.74196 9.5484C4.02583 9.5484 4.12906 9.36776 4.07745 8.98066Z" fill="#B00580"/>
<path d="M11.4064 9.75486C10.9419 9.29035 11.0451 8.3097 11.587 8.00002C12.2322 7.66454 12.2838 7.66454 12.7483 8.15486C13.2128 8.59357 13.2903 9.29035 12.9032 9.29035C12.7741 9.29035 12.6451 9.1097 12.6451 8.90325C12.6451 8.43873 11.9741 8.38712 11.7161 8.82583C11.6128 8.98067 11.7161 9.23873 11.9483 9.41938C12.2064 9.60002 12.387 9.80648 12.387 9.9097C12.387 10.1678 11.7419 10.0903 11.4064 9.75486Z" fill="#B00580"/>
<path d="M0 5.03226C0 4.02581 0.0774195 3.84516 0.774195 3.48387C1.21291 3.25161 1.67742 3.14839 1.80645 3.22581C2.24517 3.50968 2.09033 4.18065 1.54839 4.30968C1.16129 4.41291 1.03226 4.67097 1.03226 5.31613C1.03226 6.01291 0.929034 6.19355 0.51613 6.19355C0.0774195 6.19355 0 6.01291 0 5.03226Z" fill="#B00580"/>
<path d="M6.29668 1.49678C6.06442 1.13549 7.32894 0 7.9483 0C8.51604 0 10.0644 0.95484 10.0644 1.29032C10.0644 1.78065 9.29024 1.88387 8.67088 1.47097C8.15475 1.10968 7.99991 1.10968 7.587 1.41936C6.99345 1.88387 6.52894 1.90968 6.29668 1.49678Z" fill="#B00580"/>
<path d="M9.10958 1.41936C9.03216 1.1871 9.03216 0.954842 9.10958 0.877422C9.34184 0.645164 9.80635 1.03226 9.80635 1.44517C9.80635 1.93549 9.31603 1.90968 9.10958 1.41936Z" fill="#B00580"/>
<path d="M13.8324 14.5291C13.5227 14.1936 13.7034 13.6774 14.2195 13.3936C14.6066 13.1871 14.7098 13.1871 14.6066 13.3936C14.5034 13.5484 14.555 13.6774 14.684 13.6774C14.8388 13.6774 14.9679 13.7549 14.9679 13.8839C14.9679 14.1678 14.013 14.7097 13.8324 14.5291Z" fill="#B00580"/>
<path d="M0 8.80002C0 4.77421 0.0516122 4.15485 0.43871 3.84517C0.722581 3.58711 0.800003 3.58711 0.670971 3.81937C0.567745 3.97421 0.59355 4.12905 0.722583 4.12905C1.08387 4.12905 1.10968 10.8387 0.748387 12.2323C0.593548 12.8774 0.361289 13.4194 0.232257 13.4194C0.103224 13.4194 0 11.3549 0 8.80002Z" fill="#B00580"/>
<path d="M11.4064 9.54841C10.9419 8.80002 11.0193 8.61937 11.6128 9.16131C12.2064 9.70324 12.5419 9.49679 12.6967 8.51615L12.7999 7.87098L13.0064 8.59356C13.3677 9.85808 12.1032 10.6323 11.4064 9.54841Z" fill="#B00580"/>
<path d="M2.94184 9.44518C2.65797 8.7226 2.96765 8.12905 3.61281 8.07743L4.25797 8.00002L3.63862 8.25808C3.1741 8.46453 3.07087 8.67098 3.14829 9.16131C3.30313 9.85808 3.1741 10.0129 2.94184 9.44518Z" fill="#B00580"/>
</svg>
