<svg width="16" height="748" viewBox="0 0 8 748" fill="none" xmlns="http://www.w3.org/2000/svg">
<g opacity="0.2">
<rect width="3" height="3" fill="#B00580"/>
<rect x="4" width="4" height="3" fill="#B00580"/>
</g>
<g opacity="0.2">
<rect y="5" width="5" height="3" fill="#B00580"/>
<rect x="6" y="5" width="2" height="3" fill="#B00580"/>
</g>
<g opacity="0.2">
<rect y="10" width="6" height="3" fill="#B00580"/>
<rect x="7" y="10" width="1" height="3" fill="#B00580"/>
</g>
<g opacity="0.2">
<rect y="15" width="3" height="3" fill="#B00580"/>
<rect x="4" y="15" width="4" height="3" fill="#B00580"/>
</g>
<g opacity="0.2">
<rect y="20" width="4" height="3" fill="#B00580"/>
<rect x="5" y="20" width="3" height="3" fill="#B00580"/>
</g>
<g opacity="0.2">
<rect y="25" width="3" height="3" fill="#B00580"/>
<rect x="4" y="25" width="4" height="3" fill="#B00580"/>
</g>
<g opacity="0.2">
<rect y="30" width="3" height="3" fill="#B00580"/>
<rect x="4" y="30" width="4" height="3" fill="#B00580"/>
</g>
<g opacity="0.2">
<rect y="35" width="5" height="3" fill="#B00580"/>
<rect x="6" y="35" width="2" height="3" fill="#B00580"/>
</g>
<g opacity="0.2">
<rect y="40" width="6" height="3" fill="#B00580"/>
<rect x="7" y="40" width="1" height="3" fill="#B00580"/>
</g>
<g opacity="0.2">
<rect y="45" width="3" height="3" fill="#B00580"/>
<rect x="4" y="45" width="4" height="3" fill="#B00580"/>
</g>
<g opacity="0.2">
<rect y="50" width="4" height="3" fill="#B00580"/>
<rect x="5" y="50" width="3" height="3" fill="#B00580"/>
</g>
<g opacity="0.2">
<rect y="55" width="3" height="3" fill="#B00580"/>
<rect x="4" y="55" width="4" height="3" fill="#B00580"/>
</g>
<g opacity="0.2">
<rect y="60" width="3" height="3" fill="#B00580"/>
<rect x="4" y="60" width="4" height="3" fill="#B00580"/>
</g>
<g opacity="0.2">
<rect y="65" width="5" height="3" fill="#B00580"/>
<rect x="6" y="65" width="2" height="3" fill="#B00580"/>
</g>
<g opacity="0.2">
<rect y="70" width="6" height="3" fill="#B00580"/>
<rect x="7" y="70" width="1" height="3" fill="#B00580"/>
</g>
<g opacity="0.2">
<rect y="75" width="3" height="3" fill="#B00580"/>
<rect x="4" y="75" width="4" height="3" fill="#B00580"/>
</g>
<g opacity="0.2">
<rect y="80" width="4" height="3" fill="#B00580"/>
<rect x="5" y="80" width="3" height="3" fill="#B00580"/>
</g>
<g opacity="0.2">
<rect y="85" width="3" height="3" fill="#B00580"/>
<rect x="4" y="85" width="4" height="3" fill="#B00580"/>
</g>
<g opacity="0.2">
<rect y="90" width="3" height="3" fill="#B00580"/>
<rect x="4" y="90" width="4" height="3" fill="#B00580"/>
</g>
<g opacity="0.2">
<rect y="95" width="5" height="3" fill="#B00580"/>
<rect x="6" y="95" width="2" height="3" fill="#B00580"/>
</g>
<g opacity="0.2">
<rect y="100" width="6" height="3" fill="#B00580"/>
<rect x="7" y="100" width="1" height="3" fill="#B00580"/>
</g>
<rect y="105" width="3" height="3" fill="#B00580"/>
<rect x="4" y="105" width="4" height="3" fill="#B00580"/>
<g opacity="0.2">
<rect y="110" width="4" height="3" fill="#B00580"/>
<rect x="5" y="110" width="3" height="3" fill="#B00580"/>
</g>
<g opacity="0.2">
<rect y="115" width="3" height="3" fill="#B00580"/>
<rect x="4" y="115" width="4" height="3" fill="#B00580"/>
</g>
<g opacity="0.2">
<rect y="120" width="3" height="3" fill="#B00580"/>
<rect x="4" y="120" width="4" height="3" fill="#B00580"/>
</g>
<g opacity="0.2">
<rect y="125" width="5" height="3" fill="#B00580"/>
<rect x="6" y="125" width="2" height="3" fill="#B00580"/>
</g>
<g opacity="0.2">
<rect y="130" width="6" height="3" fill="#B00580"/>
<rect x="7" y="130" width="1" height="3" fill="#B00580"/>
</g>
<g opacity="0.2">
<rect y="135" width="3" height="3" fill="#B00580"/>
<rect x="4" y="135" width="4" height="3" fill="#B00580"/>
</g>
<g opacity="0.2">
<rect y="140" width="4" height="3" fill="#B00580"/>
<rect x="5" y="140" width="3" height="3" fill="#B00580"/>
</g>
<g opacity="0.2">
<rect y="145" width="3" height="3" fill="#B00580"/>
<rect x="4" y="145" width="4" height="3" fill="#B00580"/>
</g>
<g opacity="0.2">
<rect y="150" width="3" height="3" fill="#B00580"/>
<rect x="4" y="150" width="4" height="3" fill="#B00580"/>
</g>
<g opacity="0.2">
<rect y="155" width="5" height="3" fill="#B00580"/>
<rect x="6" y="155" width="2" height="3" fill="#B00580"/>
</g>
<g opacity="0.2">
<rect y="160" width="6" height="3" fill="#B00580"/>
<rect x="7" y="160" width="1" height="3" fill="#B00580"/>
</g>
<g opacity="0.2">
<rect y="165" width="3" height="3" fill="#B00580"/>
<rect x="4" y="165" width="4" height="3" fill="#B00580"/>
</g>
<g opacity="0.2">
<rect y="170" width="4" height="3" fill="#B00580"/>
<rect x="5" y="170" width="3" height="3" fill="#B00580"/>
</g>
<g opacity="0.2">
<rect y="175" width="3" height="3" fill="#B00580"/>
<rect x="4" y="175" width="4" height="3" fill="#B00580"/>
</g>
<g opacity="0.2">
<rect y="180" width="3" height="3" fill="#B00580"/>
<rect x="4" y="180" width="4" height="3" fill="#B00580"/>
</g>
<g opacity="0.2">
<rect y="185" width="5" height="3" fill="#B00580"/>
<rect x="6" y="185" width="2" height="3" fill="#B00580"/>
</g>
<g opacity="0.2">
<rect y="190" width="6" height="3" fill="#B00580"/>
<rect x="7" y="190" width="1" height="3" fill="#B00580"/>
</g>
<g opacity="0.2">
<rect y="195" width="3" height="3" fill="#B00580"/>
<rect x="4" y="195" width="4" height="3" fill="#B00580"/>
</g>
<g opacity="0.2">
<rect y="200" width="4" height="3" fill="#B00580"/>
<rect x="5" y="200" width="3" height="3" fill="#B00580"/>
</g>
<g opacity="0.2">
<rect y="205" width="3" height="3" fill="#B00580"/>
<rect x="4" y="205" width="4" height="3" fill="#B00580"/>
</g>
<g opacity="0.2">
<rect y="210" width="3" height="3" fill="#B00580"/>
<rect x="4" y="210" width="4" height="3" fill="#B00580"/>
</g>
<g opacity="0.2">
<rect y="215" width="5" height="3" fill="#B00580"/>
<rect x="6" y="215" width="2" height="3" fill="#B00580"/>
</g>
<g opacity="0.2">
<rect y="220" width="6" height="3" fill="#B00580"/>
<rect x="7" y="220" width="1" height="3" fill="#B00580"/>
</g>
<g opacity="0.2">
<rect y="225" width="3" height="3" fill="#B00580"/>
<rect x="4" y="225" width="4" height="3" fill="#B00580"/>
</g>
<g opacity="0.2">
<rect y="230" width="4" height="3" fill="#B00580"/>
<rect x="5" y="230" width="3" height="3" fill="#B00580"/>
</g>
<g opacity="0.2">
<rect y="235" width="3" height="3" fill="#B00580"/>
<rect x="4" y="235" width="4" height="3" fill="#B00580"/>
</g>
<g opacity="0.2">
<rect y="240" width="3" height="3" fill="#B00580"/>
<rect x="4" y="240" width="4" height="3" fill="#B00580"/>
</g>
<g opacity="0.2">
<rect y="245" width="5" height="3" fill="#B00580"/>
<rect x="6" y="245" width="2" height="3" fill="#B00580"/>
</g>
<g opacity="0.2">
<rect y="250" width="6" height="3" fill="#B00580"/>
<rect x="7" y="250" width="1" height="3" fill="#B00580"/>
</g>
<g opacity="0.2">
<rect y="255" width="3" height="3" fill="#B00580"/>
<rect x="4" y="255" width="4" height="3" fill="#B00580"/>
</g>
<g opacity="0.2">
<rect y="260" width="4" height="3" fill="#B00580"/>
<rect x="5" y="260" width="3" height="3" fill="#B00580"/>
</g>
<g opacity="0.2">
<rect y="265" width="3" height="3" fill="#B00580"/>
<rect x="4" y="265" width="4" height="3" fill="#B00580"/>
</g>
<g opacity="0.2">
<rect y="270" width="3" height="3" fill="#B00580"/>
<rect x="4" y="270" width="4" height="3" fill="#B00580"/>
</g>
<g opacity="0.2">
<rect y="275" width="5" height="3" fill="#B00580"/>
<rect x="6" y="275" width="2" height="3" fill="#B00580"/>
</g>
<g opacity="0.2">
<rect y="280" width="6" height="3" fill="#B00580"/>
<rect x="7" y="280" width="1" height="3" fill="#B00580"/>
</g>
<g opacity="0.2">
<rect y="285" width="3" height="3" fill="#B00580"/>
<rect x="4" y="285" width="4" height="3" fill="#B00580"/>
</g>
<g opacity="0.2">
<rect y="290" width="4" height="3" fill="#B00580"/>
<rect x="5" y="290" width="3" height="3" fill="#B00580"/>
</g>
<g opacity="0.2">
<rect y="295" width="3" height="3" fill="#B00580"/>
<rect x="4" y="295" width="4" height="3" fill="#B00580"/>
</g>
<g opacity="0.2">
<rect y="300" width="3" height="3" fill="#B00580"/>
<rect x="4" y="300" width="4" height="3" fill="#B00580"/>
</g>
<g opacity="0.2">
<rect y="305" width="5" height="3" fill="#B00580"/>
<rect x="6" y="305" width="2" height="3" fill="#B00580"/>
</g>
<g opacity="0.2">
<rect y="310" width="6" height="3" fill="#B00580"/>
<rect x="7" y="310" width="1" height="3" fill="#B00580"/>
</g>
<g opacity="0.2">
<rect y="315" width="3" height="3" fill="#B00580"/>
<rect x="4" y="315" width="4" height="3" fill="#B00580"/>
</g>
<g opacity="0.2">
<rect y="320" width="4" height="3" fill="#B00580"/>
<rect x="5" y="320" width="3" height="3" fill="#B00580"/>
</g>
<g opacity="0.2">
<rect y="325" width="3" height="3" fill="#B00580"/>
<rect x="4" y="325" width="4" height="3" fill="#B00580"/>
</g>
<g opacity="0.2">
<rect y="330" width="3" height="3" fill="#B00580"/>
<rect x="4" y="330" width="4" height="3" fill="#B00580"/>
</g>
<g opacity="0.2">
<rect y="335" width="5" height="3" fill="#B00580"/>
<rect x="6" y="335" width="2" height="3" fill="#B00580"/>
</g>
<g opacity="0.2">
<rect y="340" width="6" height="3" fill="#B00580"/>
<rect x="7" y="340" width="1" height="3" fill="#B00580"/>
</g>
<g opacity="0.2">
<rect y="345" width="3" height="3" fill="#B00580"/>
<rect x="4" y="345" width="4" height="3" fill="#B00580"/>
</g>
<g opacity="0.2">
<rect y="350" width="4" height="3" fill="#B00580"/>
<rect x="5" y="350" width="3" height="3" fill="#B00580"/>
</g>
<g opacity="0.2">
<rect y="355" width="3" height="3" fill="#B00580"/>
<rect x="4" y="355" width="4" height="3" fill="#B00580"/>
</g>
<g opacity="0.2">
<rect y="360" width="3" height="3" fill="#B00580"/>
<rect x="4" y="360" width="4" height="3" fill="#B00580"/>
</g>
<g opacity="0.2">
<rect y="365" width="5" height="3" fill="#B00580"/>
<rect x="6" y="365" width="2" height="3" fill="#B00580"/>
</g>
<g opacity="0.2">
<rect y="370" width="6" height="3" fill="#B00580"/>
<rect x="7" y="370" width="1" height="3" fill="#B00580"/>
</g>
<g opacity="0.2">
<rect y="375" width="3" height="3" fill="#B00580"/>
<rect x="4" y="375" width="4" height="3" fill="#B00580"/>
</g>
<g opacity="0.2">
<rect y="380" width="4" height="3" fill="#B00580"/>
<rect x="5" y="380" width="3" height="3" fill="#B00580"/>
</g>
<g opacity="0.2">
<rect y="385" width="3" height="3" fill="#B00580"/>
<rect x="4" y="385" width="4" height="3" fill="#B00580"/>
</g>
<g opacity="0.2">
<rect y="390" width="3" height="3" fill="#B00580"/>
<rect x="4" y="390" width="4" height="3" fill="#B00580"/>
</g>
<g opacity="0.2">
<rect y="395" width="5" height="3" fill="#B00580"/>
<rect x="6" y="395" width="2" height="3" fill="#B00580"/>
</g>
<g opacity="0.2">
<rect y="400" width="6" height="3" fill="#B00580"/>
<rect x="7" y="400" width="1" height="3" fill="#B00580"/>
</g>
<g opacity="0.2">
<rect y="405" width="3" height="3" fill="#B00580"/>
<rect x="4" y="405" width="4" height="3" fill="#B00580"/>
</g>
<g opacity="0.2">
<rect y="410" width="4" height="3" fill="#B00580"/>
<rect x="5" y="410" width="3" height="3" fill="#B00580"/>
</g>
<g opacity="0.2">
<rect y="415" width="3" height="3" fill="#B00580"/>
<rect x="4" y="415" width="4" height="3" fill="#B00580"/>
</g>
<g opacity="0.2">
<rect y="420" width="3" height="3" fill="#B00580"/>
<rect x="4" y="420" width="4" height="3" fill="#B00580"/>
</g>
<g opacity="0.2">
<rect y="425" width="5" height="3" fill="#B00580"/>
<rect x="6" y="425" width="2" height="3" fill="#B00580"/>
</g>
<g opacity="0.2">
<rect y="430" width="6" height="3" fill="#B00580"/>
<rect x="7" y="430" width="1" height="3" fill="#B00580"/>
</g>
<g opacity="0.2">
<rect y="435" width="3" height="3" fill="#B00580"/>
<rect x="4" y="435" width="4" height="3" fill="#B00580"/>
</g>
<g opacity="0.2">
<rect y="440" width="4" height="3" fill="#B00580"/>
<rect x="5" y="440" width="3" height="3" fill="#B00580"/>
</g>
<g opacity="0.2">
<rect y="445" width="3" height="3" fill="#B00580"/>
<rect x="4" y="445" width="4" height="3" fill="#B00580"/>
</g>
<g opacity="0.2">
<rect y="450" width="3" height="3" fill="#B00580"/>
<rect x="4" y="450" width="4" height="3" fill="#B00580"/>
</g>
<g opacity="0.2">
<rect y="455" width="5" height="3" fill="#B00580"/>
<rect x="6" y="455" width="2" height="3" fill="#B00580"/>
</g>
<g opacity="0.2">
<rect y="460" width="6" height="3" fill="#B00580"/>
<rect x="7" y="460" width="1" height="3" fill="#B00580"/>
</g>
<g opacity="0.2">
<rect y="465" width="3" height="3" fill="#B00580"/>
<rect x="4" y="465" width="4" height="3" fill="#B00580"/>
</g>
<g opacity="0.2">
<rect y="470" width="4" height="3" fill="#B00580"/>
<rect x="5" y="470" width="3" height="3" fill="#B00580"/>
</g>
<g opacity="0.2">
<rect y="475" width="3" height="3" fill="#B00580"/>
<rect x="4" y="475" width="4" height="3" fill="#B00580"/>
</g>
<g opacity="0.2">
<rect y="480" width="3" height="3" fill="#B00580"/>
<rect x="4" y="480" width="4" height="3" fill="#B00580"/>
</g>
<g opacity="0.2">
<rect y="485" width="5" height="3" fill="#B00580"/>
<rect x="6" y="485" width="2" height="3" fill="#B00580"/>
</g>
<g opacity="0.2">
<rect y="490" width="6" height="3" fill="#B00580"/>
<rect x="7" y="490" width="1" height="3" fill="#B00580"/>
</g>
<g opacity="0.2">
<rect y="495" width="3" height="3" fill="#B00580"/>
<rect x="4" y="495" width="4" height="3" fill="#B00580"/>
</g>
<g opacity="0.2">
<rect y="500" width="4" height="3" fill="#B00580"/>
<rect x="5" y="500" width="3" height="3" fill="#B00580"/>
</g>
<g opacity="0.2">
<rect y="505" width="3" height="3" fill="#B00580"/>
<rect x="4" y="505" width="4" height="3" fill="#B00580"/>
</g>
<g opacity="0.2">
<rect y="510" width="3" height="3" fill="#B00580"/>
<rect x="4" y="510" width="4" height="3" fill="#B00580"/>
</g>
<g opacity="0.2">
<rect y="515" width="5" height="3" fill="#B00580"/>
<rect x="6" y="515" width="2" height="3" fill="#B00580"/>
</g>
<g opacity="0.2">
<rect y="520" width="6" height="3" fill="#B00580"/>
<rect x="7" y="520" width="1" height="3" fill="#B00580"/>
</g>
<g opacity="0.2">
<rect y="525" width="3" height="3" fill="#B00580"/>
<rect x="4" y="525" width="4" height="3" fill="#B00580"/>
</g>
<g opacity="0.2">
<rect y="530" width="4" height="3" fill="#B00580"/>
<rect x="5" y="530" width="3" height="3" fill="#B00580"/>
</g>
<g opacity="0.2">
<rect y="535" width="3" height="3" fill="#B00580"/>
<rect x="4" y="535" width="4" height="3" fill="#B00580"/>
</g>
<g opacity="0.2">
<rect y="540" width="3" height="3" fill="#B00580"/>
<rect x="4" y="540" width="4" height="3" fill="#B00580"/>
</g>
<g opacity="0.2">
<rect y="545" width="5" height="3" fill="#B00580"/>
<rect x="6" y="545" width="2" height="3" fill="#B00580"/>
</g>
<g opacity="0.2">
<rect y="550" width="6" height="3" fill="#B00580"/>
<rect x="7" y="550" width="1" height="3" fill="#B00580"/>
</g>
<g opacity="0.2">
<rect y="555" width="3" height="3" fill="#B00580"/>
<rect x="4" y="555" width="4" height="3" fill="#B00580"/>
</g>
<g opacity="0.2">
<rect y="560" width="4" height="3" fill="#B00580"/>
<rect x="5" y="560" width="3" height="3" fill="#B00580"/>
</g>
<g opacity="0.2">
<rect y="565" width="3" height="3" fill="#B00580"/>
<rect x="4" y="565" width="4" height="3" fill="#B00580"/>
</g>
<g opacity="0.2">
<rect y="570" width="3" height="3" fill="#B00580"/>
<rect x="4" y="570" width="4" height="3" fill="#B00580"/>
</g>
<g opacity="0.2">
<rect y="575" width="5" height="3" fill="#B00580"/>
<rect x="6" y="575" width="2" height="3" fill="#B00580"/>
</g>
<g opacity="0.2">
<rect y="580" width="6" height="3" fill="#B00580"/>
<rect x="7" y="580" width="1" height="3" fill="#B00580"/>
</g>
<g opacity="0.2">
<rect y="585" width="3" height="3" fill="#B00580"/>
<rect x="4" y="585" width="4" height="3" fill="#B00580"/>
</g>
<g opacity="0.2">
<rect y="590" width="4" height="3" fill="#B00580"/>
<rect x="5" y="590" width="3" height="3" fill="#B00580"/>
</g>
<g opacity="0.2">
<rect y="595" width="3" height="3" fill="#B00580"/>
<rect x="4" y="595" width="4" height="3" fill="#B00580"/>
</g>
<g opacity="0.2">
<rect y="600" width="3" height="3" fill="#B00580"/>
<rect x="4" y="600" width="4" height="3" fill="#B00580"/>
</g>
<g opacity="0.2">
<rect y="605" width="5" height="3" fill="#B00580"/>
<rect x="6" y="605" width="2" height="3" fill="#B00580"/>
</g>
<g opacity="0.2">
<rect y="610" width="6" height="3" fill="#B00580"/>
<rect x="7" y="610" width="1" height="3" fill="#B00580"/>
</g>
<g opacity="0.2">
<rect y="615" width="3" height="3" fill="#B00580"/>
<rect x="4" y="615" width="4" height="3" fill="#B00580"/>
</g>
<g opacity="0.2">
<rect y="620" width="4" height="3" fill="#B00580"/>
<rect x="5" y="620" width="3" height="3" fill="#B00580"/>
</g>
<g opacity="0.2">
<rect y="625" width="3" height="3" fill="#B00580"/>
<rect x="4" y="625" width="4" height="3" fill="#B00580"/>
</g>
<g opacity="0.2">
<rect y="630" width="3" height="3" fill="#B00580"/>
<rect x="4" y="630" width="4" height="3" fill="#B00580"/>
</g>
<g opacity="0.2">
<rect y="635" width="5" height="3" fill="#B00580"/>
<rect x="6" y="635" width="2" height="3" fill="#B00580"/>
</g>
<g opacity="0.2">
<rect y="640" width="6" height="3" fill="#B00580"/>
<rect x="7" y="640" width="1" height="3" fill="#B00580"/>
</g>
<g opacity="0.2">
<rect y="645" width="3" height="3" fill="#B00580"/>
<rect x="4" y="645" width="4" height="3" fill="#B00580"/>
</g>
<g opacity="0.2">
<rect y="650" width="4" height="3" fill="#B00580"/>
<rect x="5" y="650" width="3" height="3" fill="#B00580"/>
</g>
<g opacity="0.2">
<rect y="655" width="3" height="3" fill="#B00580"/>
<rect x="4" y="655" width="4" height="3" fill="#B00580"/>
</g>
<g opacity="0.2">
<rect y="660" width="3" height="3" fill="#B00580"/>
<rect x="4" y="660" width="4" height="3" fill="#B00580"/>
</g>
<g opacity="0.2">
<rect y="665" width="5" height="3" fill="#B00580"/>
<rect x="6" y="665" width="2" height="3" fill="#B00580"/>
</g>
<g opacity="0.2">
<rect y="670" width="6" height="3" fill="#B00580"/>
<rect x="7" y="670" width="1" height="3" fill="#B00580"/>
</g>
<g opacity="0.2">
<rect y="675" width="3" height="3" fill="#B00580"/>
<rect x="4" y="675" width="4" height="3" fill="#B00580"/>
</g>
<g opacity="0.2">
<rect y="680" width="4" height="3" fill="#B00580"/>
<rect x="5" y="680" width="3" height="3" fill="#B00580"/>
</g>
<g opacity="0.2">
<rect y="685" width="3" height="3" fill="#B00580"/>
<rect x="4" y="685" width="4" height="3" fill="#B00580"/>
</g>
<g opacity="0.2">
<rect y="690" width="3" height="3" fill="#B00580"/>
<rect x="4" y="690" width="4" height="3" fill="#B00580"/>
</g>
<g opacity="0.2">
<rect y="695" width="5" height="3" fill="#B00580"/>
<rect x="6" y="695" width="2" height="3" fill="#B00580"/>
</g>
<g opacity="0.2">
<rect y="700" width="6" height="3" fill="#B00580"/>
<rect x="7" y="700" width="1" height="3" fill="#B00580"/>
</g>
<g opacity="0.2">
<rect y="705" width="3" height="3" fill="#B00580"/>
<rect x="4" y="705" width="4" height="3" fill="#B00580"/>
</g>
<g opacity="0.2">
<rect y="710" width="4" height="3" fill="#B00580"/>
<rect x="5" y="710" width="3" height="3" fill="#B00580"/>
</g>
<g opacity="0.2">
<rect y="715" width="3" height="3" fill="#B00580"/>
<rect x="4" y="715" width="4" height="3" fill="#B00580"/>
</g>
<g opacity="0.2">
<rect y="720" width="3" height="3" fill="#B00580"/>
<rect x="4" y="720" width="4" height="3" fill="#B00580"/>
</g>
<g opacity="0.2">
<rect y="725" width="5" height="3" fill="#B00580"/>
<rect x="6" y="725" width="2" height="3" fill="#B00580"/>
</g>
<g opacity="0.2">
<rect y="730" width="6" height="3" fill="#B00580"/>
<rect x="7" y="730" width="1" height="3" fill="#B00580"/>
</g>
<g opacity="0.2">
<rect y="735" width="3" height="3" fill="#B00580"/>
<rect x="4" y="735" width="4" height="3" fill="#B00580"/>
</g>
<g opacity="0.2">
<rect y="740" width="4" height="3" fill="#B00580"/>
<rect x="5" y="740" width="3" height="3" fill="#B00580"/>
</g>
<g opacity="0.2">
<rect y="745" width="3" height="3" fill="#B00580"/>
<rect x="4" y="745" width="4" height="3" fill="#B00580"/>
</g>
</svg>
