<svg width="32" height="33" viewBox="0 0 14 19" fill="none" xmlns="http://www.w3.org/2000/svg">
<path d="M5.41456 17.2999C3.92553 16.4335 2.13868 15.3777 1.43478 14.9716C0.378914 14.3489 0.135254 14.0782 0.135254 13.4825C0.135254 12.9952 0.270621 12.7245 0.541355 12.7245C0.757942 12.7245 0.947455 12.8869 0.947455 13.0764C0.947455 13.293 2.59893 14.403 4.60236 15.5401C8.1219 17.5706 8.31141 17.6248 8.9341 17.2187C9.50264 16.8396 9.58386 16.8396 9.90874 17.2187C10.2878 17.6789 10.2066 17.7601 8.79873 18.5182C8.17605 18.8701 7.93239 18.7618 5.41456 17.2999Z" fill="#B00580"/>
<path d="M7.25574 14.403C6.93086 14.3489 6.14573 13.8616 5.52304 13.3201C4.30474 12.2101 4.27767 11.8581 5.25231 10.5857L5.7667 9.90886L6.47061 11.2625C6.84964 11.9935 7.41818 12.9682 7.71599 13.4555C8.3116 14.3489 8.20331 14.5655 7.25574 14.403Z" fill="#B00580"/>
<path d="M8.39265 13.6179L7.71582 12.5891L10.0441 12.5079C11.3437 12.4538 12.4537 12.5079 12.5349 12.562C12.9139 12.9681 11.2895 14.1052 9.82754 14.4572C9.20486 14.5925 8.98827 14.4843 8.39265 13.6179Z" fill="#B00580"/>
<path d="M10.9646 11.9123C10.9646 11.5333 13.0492 7.9325 13.4012 7.71591C13.8344 7.44518 13.9968 9.82764 13.6178 10.9647C13.2929 11.9664 13.1846 12.0477 12.1288 12.1289C11.3978 12.183 10.9646 12.1018 10.9646 11.9123Z" fill="#B00580"/>
<path d="M3.7632 10.6669C3.11344 8.06787 5.11687 4.95443 7.77006 4.46711C8.71762 4.2776 8.77177 4.33174 9.31324 5.3876L9.88178 6.49761H8.41982C7.06615 6.49761 6.95785 6.55176 6.63297 7.30982C6.44346 7.77006 6.11858 8.12202 5.90199 8.12202C5.65833 8.12202 5.55004 8.28446 5.63126 8.50104C5.76663 8.853 4.38588 11.3708 4.061 11.3708C4.00686 11.3708 3.84442 11.0459 3.7632 10.6669Z" fill="#B00580"/>
<path d="M10.7482 6.87664C10.0984 5.76663 9.6111 4.71077 9.66524 4.5754C9.80061 4.1693 12.0748 5.46882 12.6704 6.28103C13.2119 6.98493 13.2119 6.98493 12.6162 7.95957C12.2643 8.50104 11.9936 8.93421 11.9665 8.93421C11.9394 8.93421 11.3979 8.01372 10.7482 6.87664Z" fill="#B00580"/>
<path d="M0.135254 4.65662C0.135254 4.38589 7.66165 0 8.14897 0C8.71751 0 10.1524 0.785128 10.1524 1.08294C10.1524 1.54318 9.55679 1.67855 8.9341 1.35367C8.39263 1.05586 8.14897 1.11001 7.12018 1.67855C2.38234 4.41296 1.46185 4.87321 0.839162 4.87321C0.460135 4.87321 0.135254 4.79199 0.135254 4.65662Z" fill="#B00580"/>
<path d="M6.63306 13.6991C6.63306 13.2118 7.58062 13.1035 7.87843 13.5908C7.98673 13.7804 7.95965 13.8074 7.74306 13.6991C7.58062 13.5908 7.25574 13.645 7.03916 13.8074C6.71428 14.0782 6.63306 14.0511 6.63306 13.6991Z" fill="#B00580"/>
<path d="M11.2626 13.293C11.0731 13.1577 10.9919 12.914 11.0731 12.7516C11.3168 12.3996 12.5892 12.3455 12.5892 12.6974C12.5892 12.8328 12.3456 12.8869 12.0478 12.8057C11.6146 12.6974 11.5334 12.7516 11.6687 13.1035C11.8582 13.5908 11.8041 13.6179 11.2626 13.293Z" fill="#B00580"/>
<path d="M11.5873 12.0206C11.3978 11.9394 11.2354 11.6145 11.2354 11.3167C11.2354 10.8835 11.3707 10.8023 11.8851 10.8835C12.4807 10.9918 12.5619 10.9106 12.7244 9.82763C12.8598 8.90714 12.9951 8.66348 13.4283 8.66348C13.699 8.66348 13.9427 8.82592 13.9427 9.04251C13.9427 9.71934 13.6178 10.2879 13.2388 10.2879C13.0222 10.2879 12.8598 10.4233 12.8598 10.5586C12.8598 10.7211 12.9951 10.8294 13.1576 10.8294C13.32 10.8294 13.4012 11.1001 13.3471 11.452C13.2659 12.0477 12.3454 12.3455 11.5873 12.0206Z" fill="#B00580"/>
<path d="M3.81721 10.9376C3.54647 10.2337 3.62769 10.0172 4.19623 10.0172C4.81892 10.0172 4.92721 10.6128 4.35867 11.073C4.06087 11.3167 3.95257 11.2896 3.81721 10.9376Z" fill="#B00580"/>
<path d="M5.2793 10.5857C5.2793 10.1254 5.76662 10.0171 5.92906 10.4232C6.01028 10.6669 5.92906 10.8294 5.6854 10.8294C5.46881 10.8294 5.2793 10.7211 5.2793 10.5857Z" fill="#B00580"/>
<path d="M4.79194 9.58398C4.60243 9.39447 4.49413 8.71764 4.52121 8.0408L4.60243 6.87664L5.54999 7.03909C6.63293 7.2286 6.63293 7.30982 5.76658 8.82593C5.25219 9.74643 5.08975 9.88179 4.79194 9.58398Z" fill="#B00580"/>
<path d="M11.8852 8.69055C11.9664 8.58226 11.804 8.25738 11.5062 7.98665C11.073 7.58054 11.0189 7.41811 11.3167 7.09323C11.5603 6.76835 11.5603 6.66005 11.3167 6.57883C11.1272 6.49761 10.9106 6.49761 10.8564 6.55176C10.7752 6.60591 10.5315 6.38932 10.315 6.09151C9.88179 5.49589 10.1796 4.87321 10.9377 4.87321C11.3167 4.87321 11.3167 4.92735 10.9647 5.14394C10.6398 5.36053 10.6669 5.41467 11.1272 5.41467C11.8581 5.41467 13.0223 6.49761 12.5891 6.76834C12.3184 6.93078 12.3455 7.01201 12.5891 7.09323C12.8599 7.17445 12.8328 7.4181 12.4808 8.06786C12.2372 8.55518 11.9664 8.93421 11.8852 8.93421C11.804 8.93421 11.804 8.82592 11.8852 8.69055Z" fill="#B00580"/>
<path d="M12.8599 8.28446C12.8599 8.23031 13.0494 8.0408 13.266 7.85128C13.5908 7.58055 13.6721 7.58055 13.6721 7.95957C13.6721 8.20324 13.4826 8.39275 13.266 8.39275C13.0494 8.39275 12.8599 8.33861 12.8599 8.28446Z" fill="#B00580"/>
<path d="M5.496 17.2999C4.49429 16.5689 4.54843 16.217 5.55015 16.5148C6.4165 16.7584 6.49772 16.7855 6.84967 16.7855C6.95796 16.7855 6.84967 16.9209 6.63308 17.0562C6.36235 17.2187 6.33528 17.327 6.57894 17.327C6.74138 17.327 6.90382 17.4623 6.90382 17.5977C6.90382 18.0309 6.28113 17.8955 5.496 17.2999Z" fill="#B00580"/>
<path d="M0.947568 14.6467L0 14.1323L0.0812202 9.25909L0.16244 4.38589L1.02879 4.03393C1.51611 3.84441 2.1388 3.46539 2.4366 3.19466C2.89685 2.76148 2.97807 2.76148 3.19466 3.11343C3.46539 3.60076 3.05929 4.061 1.81392 4.71076L0.947568 5.17101V9.47568C0.947568 13.4284 1.00172 13.8074 1.43489 13.8074C1.78684 13.8074 1.81392 13.8616 1.54318 14.0511C1.27245 14.2135 1.29952 14.3218 1.7327 14.4301C2.05758 14.5113 2.30124 14.7008 2.30124 14.8633C2.30124 15.2694 2.05758 15.2152 0.947568 14.6467Z" fill="#B00580"/>
<path d="M3.81745 10.9376C3.54672 10.2337 3.62794 10.0172 4.19648 10.0172C4.81916 10.0172 4.90039 10.4233 4.35892 10.9647C4.03404 11.2896 3.95282 11.2896 3.81745 10.9376Z" fill="#B00580"/>
<path d="M8.88001 1.2183C8.79879 0.97464 8.79879 0.730977 8.88001 0.649757C9.12367 0.406097 10.1795 1.08293 10.0171 1.38074C9.77343 1.75977 9.06952 1.67855 8.88001 1.2183Z" fill="#B00580"/>
</svg>
