<svg width="32" height="33" viewBox="0 0 17 19" fill="none" xmlns="http://www.w3.org/2000/svg">
<path d="M7.13133 18.4368C6.1747 17.6831 6.08774 16.8425 7.04436 17.1613C7.39223 17.2773 8.11695 17.3642 8.63874 17.3642C9.7693 17.3353 9.88526 17.915 8.84167 18.5818C7.972 19.1615 8.05897 19.1615 7.13133 18.4368Z" fill="#B00580"/>
<path d="M6.95736 14.4944C6.55151 14.2335 6.17466 13.9726 6.0877 13.8856C6.00073 13.8276 6.20365 13.5957 6.49354 13.3638C6.98635 13.0159 7.1023 13.0449 7.39219 13.4508C7.82702 14.0305 9.27645 13.7407 9.27645 13.1029C9.27645 12.871 9.4214 12.6681 9.56634 12.6681C9.74027 12.6681 9.85623 13.0449 9.85623 13.4798C9.85623 14.0885 9.65331 14.4074 9.13151 14.6393C8.14589 15.1031 7.79803 15.0741 6.95736 14.4944Z" fill="#B00580"/>
<path d="M10.7257 8.4937C10.7257 7.45011 10.5808 6.75438 10.2619 6.46449C9.50819 5.6818 9.27628 5.9427 9.27628 7.4791V8.92853L8.20369 8.84157C7.10212 8.7546 7.10212 8.7546 7.01516 7.39213C6.92819 5.85573 6.72527 5.71078 5.94257 6.58045C5.56572 6.98629 5.33381 7.07325 5.18887 6.84134C5.07291 6.63842 4.89898 6.87033 4.78303 7.42112C4.63808 8.05887 4.43516 8.31977 4.02932 8.31977C3.53651 8.31977 3.44955 8.14584 3.53651 7.39213C3.62348 6.58045 3.88438 6.31955 5.76864 5.21798C6.95718 4.52225 8.05875 3.97146 8.23268 4.02944C8.40662 4.08742 9.36324 4.58022 10.3489 5.13101L12.1751 6.14562V8.11685C12.1751 10.0011 12.1462 10.0591 11.4504 10.0591C10.7547 10.0591 10.7257 9.97213 10.7257 8.4937Z" fill="#B00580"/>
<path d="M0.202921 6.69639C0.0869661 6.58044 0 6.11662 0 5.68179C0 4.95707 0.405842 4.63819 4.08741 2.43505L8.14583 0L11.1027 1.73932C16.3786 4.84112 16.2917 4.75415 16.1757 5.79774C16.0597 6.89931 15.335 7.07325 15.0741 6.02965C14.9872 5.59482 14.4074 5.01505 13.6247 4.55123C12.9 4.1164 11.3926 3.21775 10.233 2.55101L8.17482 1.33348L5.3919 2.92786C1.44944 5.18898 1.21753 5.3919 1.10157 6.05864C1.0146 6.69639 0.550785 7.01527 0.202921 6.69639Z" fill="#B00580"/>
<path d="M8.43578 14.4364C8.11691 14.2335 8.17489 14.1175 8.66769 13.8566C9.13151 13.5957 9.27646 13.2479 9.27646 12.4072C9.27646 11.6245 9.47938 11.1317 10.0012 10.6389C10.407 10.262 10.7259 9.71123 10.7259 9.42134C10.7259 9.10246 10.8708 8.95752 11.0158 9.04449C11.1897 9.16044 11.3057 8.72561 11.3057 7.91393C11.3057 6.63842 11.0448 6.23258 10.1461 6.08764C9.91421 6.05865 9.6823 5.91371 9.62432 5.73977C9.50837 5.39191 7.82702 5.94269 7.82702 6.31955C7.82702 6.9573 7.30522 6.49348 7.18927 5.73977C7.04433 4.69618 7.47916 4.05843 8.26185 4.20337C8.98657 4.34831 12.5232 6.29056 12.8131 6.6964C12.929 6.87033 13.045 8.20381 13.045 9.65325V12.3202L11.0448 13.5087C8.78365 14.8422 8.98657 14.7843 8.43578 14.4364Z" fill="#B00580"/>
<path d="M5.21798 13.4218L3.6236 12.4941L3.53663 10.4649C3.39169 7.04426 3.8845 5.71078 5.39191 5.71078C6.08764 5.71078 6.37752 6.37752 5.79775 6.72538C5.65281 6.81235 5.50786 7.59504 5.50786 8.43571C5.50786 9.74021 5.62382 10.0591 6.37752 10.7838C7.01528 11.3926 7.2182 11.8274 7.13123 12.2622C7.04426 12.5811 7.16022 13.1319 7.39213 13.4508C7.76898 14.0015 7.76898 14.0885 7.36314 14.2335C6.81236 14.4364 7.10224 14.5523 5.21798 13.4218Z" fill="#B00580"/>
<path d="M8.40682 18.1759C8.02997 17.944 8.05896 17.8571 8.55177 17.4802C9.59536 16.6685 10.465 17.0454 9.65334 17.944C9.13154 18.5528 9.01559 18.5528 8.40682 18.1759Z" fill="#B00580"/>
<path d="M15.219 13.8566C14.9871 13.1319 15.248 12.6681 15.8278 12.6681C16.1467 12.6681 16.2336 12.9 16.1757 13.4508C16.0597 14.4074 15.4799 14.6393 15.219 13.8566Z" fill="#B00580"/>
<path d="M0.202921 6.69639C0.0869661 6.58044 0 6.08763 0 5.62381C0 5.04403 0.173932 4.75415 0.579774 4.63819C0.89865 4.55123 1.15955 4.3773 1.15955 4.26134C1.15955 3.97145 3.15977 3.27572 3.39168 3.50763C3.73954 3.8555 2.66696 4.52224 2.02921 4.34831C1.5364 4.20336 1.42045 4.26134 1.59438 4.55123C1.71033 4.75415 1.65236 5.01505 1.44944 5.131C1.24651 5.24696 1.07258 5.6528 1.04359 6.02965C1.01461 6.69639 0.550786 7.04426 0.202921 6.69639Z" fill="#B00580"/>
<path d="M14.0596 4.75415C13.7407 4.55123 13.4219 4.31932 13.3349 4.20336C13.2479 4.08741 12.9001 3.88449 12.5522 3.76853C12.1174 3.62359 12.0014 3.39168 12.1464 3.15977C12.3203 2.86988 12.5522 2.86988 13.3349 3.18876C13.9437 3.44966 14.1466 3.65258 13.8857 3.76853C13.6538 3.8555 13.7987 3.94246 14.2046 3.94246C14.7264 3.97145 14.9583 4.14538 14.9873 4.55123C15.0452 5.21797 14.8713 5.24695 14.0596 4.75415Z" fill="#B00580"/>
</svg>
